# xmcd
#
# Track frame offsets:
#	150
#	9830
#	24862
#	43295
#	59180
#	76105
#	87842
#	107137
#	122365
#	137805
#	153675
#	170805
#	186090
#	204282
#	204812
#	205545
#	206360
#	207122
#	208055
#	208742
#	209620
#	210435
#	211457
#	212325
#	213420
#	214000
#	214487
#	237087
#
# Disc length: 3264
#
# Revision: 1
# Processed by: cddbd v1.5.1PL0 Copyright (c) Steve Scherf et al.
# Submitted via: VisiTrax 2.9.5.180 - For more info visit www.synapsa.com
# Normalized: r0:DSETVAR1
#
DISCID=a40cbe1c
DTITLE=Various Artist - CDX 108 May 1995
DYEAR=1995
DGENRE=
TTITLE0=Clinton Gregory - A-11
TTITLE1=Rick Trevino - Bobbie Ann mason
TTITLE2=Delbert McClinton - Come together
TTITLE3=Victoria Shaw - Forgiveness
TTITLE4=Steve Wariner - Get back
TTITLE5=Junior Brown - Highway patrol
TTITLE6=Crystal gayle - Eddie rabbitt - I made promises
TTITLE7=Jeff Carson - Not on your love
TTITLE8=Brother Phelps - Not so different after all
TTITLE9=Kyle Petty - Oh king Richard
TTITLE10=Vince Gill - You better think twice
TTITLE11=Kate Wallace - Dancin' on the edge of a heartache
TTITLE12=Ken Mellons - Workin for the weekend (dancmix)
TTITLE13=Ken Mellons - Liners
TTITLE14=Ken Mellons - Liners
TTITLE15=Ken Mellons - Liners
TTITLE16=Ken Mellons - Liners
TTITLE17=Ken Mellons - Liners
TTITLE18=Ken Mellons - Liners
TTITLE19=Ken Mellons - Liners
TTITLE20=Ken Mellons - Liners
TTITLE21=Ken Mellons - Liners
TTITLE22=Ken Mellons - Liners
TTITLE23=Ken Mellons - Liners
TTITLE24=Ken Mellons - Liners
TTITLE25=Ken Mellons - Liners
TTITLE26=Ken Mellons - Interview
TTITLE27=Tractors - Liner
EXTD=
EXTT0=
EXTT1=
EXTT2=
EXTT3=
EXTT4=
EXTT5=
EXTT6=
EXTT7=
EXTT8=
EXTT9=
EXTT10=
EXTT11=
EXTT12=
EXTT13=
EXTT14=
EXTT15=
EXTT16=
EXTT17=
EXTT18=
EXTT19=
EXTT20=
EXTT21=
EXTT22=
EXTT23=
EXTT24=
EXTT25=
EXTT26=
EXTT27=
PLAYORDER=
